<svg xmlns="http://www.w3.org/2000/svg" viewBox="0 0 57.042 70.5">
    <g>
        <path d="M41.334 41.263l1.58-5.84 6.074-3.966-2.582-6.78 2.582-6.779-6.074-3.966-1.895-7.003-7.246.362-5.649-4.551-5.649 4.551-7.246-.362-1.896 7.003-6.073 3.966 2.582 6.779-2.582 6.78 6.074 3.966 2.489 7.609L4.704 63.334l9.251-3.083 3.021 9.668 12.021-23.223L41.011 69.92l3.021-9.668 9.232 3.077-11.93-22.066zM17.188 65.026l-2.179-6.973-6.35 2.117 9.577-17.488.774-.113 3.24-.161 4.8 3.564-9.862 19.054zm11.128-21.133l-4.901-3.638-.279-.225-.022.001-4.142.207-2.232.111-1.674-6.183-5.363-3.502 2.28-5.986-2.28-5.985 5.363-3.502 1.674-6.183 6.397.319 4.988-4.018 4.988 4.018 6.397-.319 1.673 6.183 5.363 3.502-2.28 5.985 2.28 5.986-5.363 3.502-1.673 6.183-6.397-.319-4.797 3.863zm14.416 13.816l-2.179 6.972-10.252-19.819 3.473-2.798 5.879.294L49.1 59.832l-6.368-2.123z"/>
    </g>
</svg>
