<svg xmlns="http://www.w3.org/2000/svg" viewBox="0 0 57.042 50">
    <g>
        <path d="M6.855 30.935l10.395-7.038a4.63 4.63 0 0 0 3.146 1.241 4.619 4.619 0 0 0 2.792-.949l4.991 4.537a4.62 4.62 0 0 0-1.051 2.915 4.663 4.663 0 0 0 9.326 0 4.634 4.634 0 0 0-1.284-3.197l10.411-12.265a4.62 4.62 0 0 0 2.342.652 4.663 4.663 0 1 0-4.663-4.663c0 .994.316 1.911.847 2.668L33.572 27.334a4.646 4.646 0 0 0-1.78-.356c-.731 0-1.414.183-2.03.483l-5.274-4.794a4.616 4.616 0 0 0 .571-2.192 4.663 4.663 0 0 0-9.326 0c0 .635.129 1.239.359 1.79l-9.237 6.254V6.5h-2v40h47v-2h-45V30.935zM47.924 9.579a2.589 2.589 0 1 1 0 5.178 2.589 2.589 0 0 1 0-5.178zM31.792 29.052a2.589 2.589 0 1 1 0 5.178 2.589 2.589 0 0 1 0-5.178zM20.396 17.886a2.589 2.589 0 1 1 0 5.178 2.589 2.589 0 0 1 0-5.178z"/>
    </g>
</svg>
