<svg xmlns="http://www.w3.org/2000/svg" viewBox="0 0 57.042 53.75">
    <g>
        <path d="M51.069 23.255a4.663 4.663 0 0 0-4.663 4.663c0 .028.008.054.008.082H33.639a4.65 4.65 0 0 0-1.317-2.415L41.269 13.5c.261.045.526.081.8.081a4.663 4.663 0 1 0-4.663-4.663c0 1.565.778 2.943 1.961 3.788l-8.758 11.83a4.611 4.611 0 0 0-1.541-.281c-.584 0-1.137.12-1.652.316l-8.651-11.86a4.648 4.648 0 0 0 1.967-3.793 4.663 4.663 0 1 0-4.663 4.663c.273 0 .536-.035.796-.08l8.872 12.162A4.642 4.642 0 0 0 24.498 28H11.724c0-.028.008-.054.008-.082a4.663 4.663 0 1 0-4.663 4.663c1.823 0 3.385-1.056 4.152-2.581h13.324a4.629 4.629 0 0 0 1.019 1.964l-7.256 10.888a4.606 4.606 0 0 0-2.24-.597 4.663 4.663 0 1 0 4.663 4.663 4.62 4.62 0 0 0-.905-2.738l7.339-11.013a4.637 4.637 0 0 0 1.903.414c.527 0 1.025-.107 1.498-.268l7.448 11.343a4.615 4.615 0 0 0-.609 2.262 4.663 4.663 0 1 0 4.663-4.663c-.998 0-1.918.32-2.677.854l-7.108-10.826A4.633 4.633 0 0 0 33.592 30h13.324c.767 1.525 2.329 2.581 4.152 2.581a4.663 4.663 0 0 0 .001-9.326zm-9-17a2.667 2.667 0 0 1 2.663 2.663 2.667 2.667 0 0 1-2.663 2.663 2.667 2.667 0 0 1-2.663-2.663 2.667 2.667 0 0 1 2.663-2.663zm-26 5.326a2.667 2.667 0 0 1-2.663-2.663 2.667 2.667 0 0 1 2.663-2.663 2.667 2.667 0 0 1 2.663 2.663 2.666 2.666 0 0 1-2.663 2.663zm-9 19a2.667 2.667 0 0 1-2.663-2.663 2.667 2.667 0 0 1 2.663-2.663 2.667 2.667 0 0 1 2.663 2.663 2.666 2.666 0 0 1-2.663 2.663zm9 19a2.667 2.667 0 0 1-2.663-2.663 2.667 2.667 0 0 1 2.663-2.663 2.667 2.667 0 0 1 2.663 2.663 2.666 2.666 0 0 1-2.663 2.663zm26-5.326a2.667 2.667 0 0 1 2.663 2.663 2.667 2.667 0 0 1-2.663 2.663 2.667 2.667 0 0 1-2.663-2.663 2.667 2.667 0 0 1 2.663-2.663zm-13-12.674a2.667 2.667 0 0 1-2.663-2.663 2.667 2.667 0 0 1 2.663-2.663 2.667 2.667 0 0 1 2.663 2.663 2.666 2.666 0 0 1-2.663 2.663zm22-1a2.667 2.667 0 0 1-2.663-2.663 2.667 2.667 0 0 1 2.663-2.663 2.667 2.667 0 0 1 2.663 2.663 2.666 2.666 0 0 1-2.663 2.663z"/>
    </g>
</svg>
